<?xml version="1.0" standalone="no"?><!DOCTYPE svg PUBLIC "-//W3C//DTD SVG 1.1//EN"
        "http://www.w3.org/Graphics/SVG/1.1/DTD/svg11.dtd">
<svg t="1715100003250" class="icon" viewBox="0 0 1024 1024" version="1.1" xmlns="http://www.w3.org/2000/svg" p-id="5949"
     width="200" height="200">
    <path d="M810.666667 426.666667V298.666667c0-47.061333-38.272-85.333333-85.333334-85.333334h-128c0-70.570667-57.429333-128-128-128S341.333333 142.762667 341.333333 213.333333H213.333333c-47.061333 0-85.333333 38.272-85.333333 85.333334v165.589333l28.117333 10.197333C190.336 486.826667 213.333333 519.082667 213.333333 554.666667s-22.997333 67.84-57.216 80.213333L128 645.077333V810.666667c0 47.061333 38.272 85.333333 85.333333 85.333333h165.589334l10.197333-28.117333C401.493333 833.664 433.749333 810.666667 469.333333 810.666667s67.84 22.997333 80.213334 57.216l10.197333 28.117333H725.333333c47.061333 0 85.333333-38.272 85.333334-85.333333v-128c70.570667 0 128-57.429333 128-128s-57.429333-128-128-128z m0 170.666666h-85.333334l-0.128 213.333334h-108.586666c-30.336-52.053333-86.272-85.333333-147.285334-85.333334s-116.949333 33.28-147.285333 85.333334H213.333333v-108.714667C265.386667 671.616 298.666667 615.68 298.666667 554.666667s-33.28-116.949333-85.333334-147.285334V298.666667h213.333334V213.333333a42.666667 42.666667 0 0 1 85.333333 0v85.333334h213.333333v213.333333h85.333334a42.666667 42.666667 0 0 1 0 85.333333z"
          p-id="5950"></path>
</svg>