<?xml version="1.0" standalone="no"?><!DOCTYPE svg PUBLIC "-//W3C//DTD SVG 1.1//EN"
        "http://www.w3.org/Graphics/SVG/1.1/DTD/svg11.dtd">
<svg t="1715180545838" class="icon" viewBox="0 0 1024 1024" version="1.1" xmlns="http://www.w3.org/2000/svg"
     p-id="17813" width="200" height="200">
    <path d="M302.933333 85.333333a136.533333 136.533333 0 0 0-136.533333 136.533334v580.266666A136.533333 136.533333 0 0 0 302.933333 938.666667h418.133334a136.533333 136.533333 0 0 0 136.533333-136.533334V298.666667l-213.333333-213.333334h-341.333334z"
          fill="#FA4E4E" p-id="17814"></path>
    <path d="M628.48 460.885333h87.168c17.877333 0 33.237333 2.645333 46.08 8.021334a64 64 0 0 1 29.866667 23.765333c6.912 10.453333 10.410667 23.381333 10.410666 38.656 0 12.544-2.133333 23.296-6.4 32.298667a60.416 60.416 0 0 1-17.834666 22.314666 92.544 92.544 0 0 1-26.837334 14.08l-15.232 8.064h-75.776l-0.341333-37.546666h56.362667c8.448 0 15.488-1.536 21.034666-4.522667a29.44 29.44 0 0 0 12.544-12.501333 38.613333 38.613333 0 0 0 4.309334-18.645334 42.24 42.24 0 0 0-4.181334-19.413333 28.16 28.16 0 0 0-12.672-12.544 46.805333 46.805333 0 0 0-21.333333-4.309333h-39.04v196.010666H628.48v-233.728z m130.645333 233.728l-53.290666-104.192 50.901333-0.341333L810.666667 692.352v2.261333h-51.541334zM502.613333 500.864l-63.573333 193.706667h-51.2l86.826667-233.685334h32.597333l-4.650667 39.978667z m52.821334 193.706667l-63.744-193.706667-5.12-39.978667h32.896l87.338666 233.728h-51.370666z m-2.901334-86.954667v37.717333h-123.434666v-37.717333h123.434666zM322.005333 622.848v-161.962667h48v161.962667c0 15.616-3.413333 29.056-10.24 40.277333-6.869333 11.136-16.213333 19.712-28.16 25.685334-11.733333 5.973333-25.002667 9.002667-39.765333 9.002666a100.693333 100.693333 0 0 1-40.618667-7.68 61.056 61.056 0 0 1-27.776-23.637333c-6.741333-10.666667-10.112-24.234667-10.112-40.618667h48.341334c0 8.576 1.152 15.36 3.498666 20.394667a22.186667 22.186667 0 0 0 10.453334 10.752c4.48 2.133333 9.898667 3.242667 16.213333 3.242667a28.757333 28.757333 0 0 0 15.872-4.352 28.074667 28.074667 0 0 0 10.453333-12.672c2.56-5.546667 3.84-12.373333 3.84-20.394667z"
          fill="#FFFFFF" p-id="17815"></path>
    <path d="M780.8 298.666667h76.8l-213.333333-213.333334v76.8A136.533333 136.533333 0 0 0 780.8 298.666667z"
          fill="#FDB8B8" p-id="17816"></path>
</svg>