<?xml version="1.0" standalone="no"?><!DOCTYPE svg PUBLIC "-//W3C//DTD SVG 1.1//EN" "http://www.w3.org/Graphics/SVG/1.1/DTD/svg11.dtd"><svg t="1716708954952" class="icon" viewBox="0 0 1024 1024" version="1.1" xmlns="http://www.w3.org/2000/svg" p-id="7343" xmlns:xlink="http://www.w3.org/1999/xlink" width="200" height="200"><path d="M405.333333 533.333333a128.512 128.512 0 0 0 128-128 126.208 126.208 0 0 0-128-128 128.384 128.384 0 0 0-128 128 126.72 126.72 0 0 0 128 128z m0 192a348.629333 348.629333 0 0 1-65.92-6.314666l-15.616-3.029334-4.778666-14.677333a112.853333 112.853333 0 0 0-52.864-64 120.106667 120.106667 0 0 0-83.498667-12.245333l-15.488 3.285333-10.496-11.434667a315.136 315.136 0 0 1-66.218667-110.122666l-5.034666-14.549334 10.709333-11.264a108.8 108.8 0 0 0 0-151.722666l-10.709333-11.264 5.034666-14.549334a315.264 315.264 0 0 1 66.218667-110.122666l10.496-11.434667 15.488 3.285333a119.893333 119.893333 0 0 0 83.498667-12.288 112.896 112.896 0 0 0 52.906666-63.744l4.778667-14.634666 15.616-3.029334a348.288 348.288 0 0 1 131.882667 0l15.616 3.029334 4.778666 14.634666a116.778667 116.778667 0 0 0 136.533334 76.032l15.488-3.285333 10.496 11.434667a315.349333 315.349333 0 0 1 66.048 110.336l5.034666 14.506666-10.752 11.264a108.842667 108.842667 0 0 0 0 151.765334l10.752 11.264-5.034666 14.549333a315.306667 315.306667 0 0 1-66.261334 110.122667l-10.496 11.434666-15.445333-3.285333a120.106667 120.106667 0 0 0-83.541333 12.288 112.981333 112.981333 0 0 0-52.906667 64l-4.778667 14.634667-15.616 3.072a347.434667 347.434667 0 0 1-65.92 6.314666z" fill="#666666" p-id="7344"></path><path d="M842.666667 433.066667a38.4 38.4 0 0 0 38.4-38.4 37.888 37.888 0 0 0-38.4-38.4 38.4 38.4 0 0 0-38.4 38.4 38.016 38.016 0 0 0 38.4 38.4z m0 57.6a104.576 104.576 0 0 1-19.797334-1.877334l-4.693333-0.896-1.450667-4.266666a33.834667 33.834667 0 0 0-15.872-19.157334 36.010667 36.010667 0 0 0-25.045333-3.669333l-4.650667 0.981333-3.157333-3.413333a94.549333 94.549333 0 0 1-19.882667-33.024l-1.493333-4.266667 3.2-3.370666a32.64 32.64 0 0 0 0-45.525334l-3.2-3.370666 1.493333-4.266667A94.592 94.592 0 0 1 768 331.52l3.157333-3.413333 4.650667 0.981333a35.968 35.968 0 0 0 25.045333-3.669333 33.877333 33.877333 0 0 0 15.872-19.114667l1.450667-4.266667 4.693333-0.896a104.490667 104.490667 0 0 1 39.552 0l4.693334 0.896 1.450666 4.266667a35.029333 35.029333 0 0 0 40.917334 22.826667l4.650666-0.981334 3.157334 3.413334a94.592 94.592 0 0 1 19.882666 33.024l1.493334 4.266666-3.242667 3.370667a32.64 32.64 0 0 0 0 45.525333L938.666667 421.12l-1.493334 4.266667a94.592 94.592 0 0 1-19.882666 33.024l-3.157334 3.413333-4.650666-0.981333a36.053333 36.053333 0 0 0-25.045334 3.669333 33.877333 33.877333 0 0 0-15.872 19.157333l-1.408 4.266667-4.693333 0.938667a104.234667 104.234667 0 0 1-19.797333 1.92z" fill="#666666" p-id="7345"></path><path d="M640 861.866667a51.2 51.2 0 0 0 51.2-51.2 50.474667 50.474667 0 0 0-51.2-51.2 51.2 51.2 0 0 0-51.2 51.2 50.688 50.688 0 0 0 51.2 51.2z m0 76.8a139.434667 139.434667 0 0 1-26.368-2.517334l-6.272-1.237333-1.92-5.888a45.141333 45.141333 0 0 0-21.333333-25.6 48.042667 48.042667 0 0 0-33.408-4.906667l-6.186667 1.322667-4.266667-4.565333a126.037333 126.037333 0 0 1-26.496-44.074667l-2.005333-5.802667 4.266667-4.522666a43.52 43.52 0 0 0 0-60.672l-4.266667-4.522667 2.005333-5.802667a126.122667 126.122667 0 0 1 26.496-44.032l4.266667-4.565333 6.186667 1.322667a47.957333 47.957333 0 0 0 33.408-4.906667 45.141333 45.141333 0 0 0 21.333333-25.6l1.92-5.845333 6.272-1.237334a139.306667 139.306667 0 0 1 52.736 0l6.272 1.237334 1.92 5.845333a46.933333 46.933333 0 0 0 54.570667 30.421333l6.186666-1.322666 4.266667 4.565333a126.165333 126.165333 0 0 1 26.496 44.074667l2.005333 5.802666-4.266666 4.522667a43.52 43.52 0 0 0 0 60.714667l4.266666 4.522666-2.005333 5.802667a126.122667 126.122667 0 0 1-26.496 44.032l-4.266667 4.565333-6.186666-1.322666a48.042667 48.042667 0 0 0-33.408 4.906666 45.184 45.184 0 0 0-21.333334 25.6l-1.877333 5.802667-6.272 1.237333a138.965333 138.965333 0 0 1-26.368 2.517334z" fill="#666666" p-id="7346"></path></svg>