<?xml version="1.0" standalone="no"?><!DOCTYPE svg PUBLIC "-//W3C//DTD SVG 1.1//EN"
        "http://www.w3.org/Graphics/SVG/1.1/DTD/svg11.dtd">
<svg t="1715091291037" class="icon" viewBox="0 0 1024 1024" version="1.1" xmlns="http://www.w3.org/2000/svg" p-id="1983"
     width="200" height="200">
    <path d="M672.522661 855.341189c-0.921074-31.572356-129.615525-43.34163-260.254464 1.125756-55.469099 18.830838-113.75259 56.594856-175.31101 113.087371L204.975465 999.949745l18.267959 4.963563c77.011988 20.672985 148.190509 24.408451 213.22854 11.001713 106.537514-21.901084 236.767088-129.97372 235.999527-160.573832z m140.77075-319.766054l-3.479612-1.842147c-34.284406-13.611421-191.480969 24.561963-269.311688 92.465556-44.518558 38.889774-80.184575 89.804677-107.305075 152.284169l-8.80137 21.287035-6.549857 17.193374 18.677326-2.865563c95.43346-14.583665 169.784568-39.606165 222.950984-75.067499 109.761271-73.430035 174.748131-176.334425 156.326659-200.947558l-2.558538-2.507367h0.051171z m-43.034606-265.37154l-3.070245-1.023415c-29.525526-4.605368-161.392564 65.498568-226.174741 138.16104-37.508164 42.113532-61.149053 95.996338-71.02501 161.546077l-2.558537 20.058936-2.149172 19.547229 18.165618-8.903712c87.501993-43.34163 146.604216-78.291257 177.664865-105.411757 85.352821-74.299938 133.095136-199.258924 112.063955-221.774056l-2.916733-2.200342z m-160.369149-87.143798c25.431866-105.923465 7.777955-184.214721-20.826498-182.423745-33.260991 1.944489-113.957273 113.343224-134.579088 211.84693-10.438834 50.914902-8.494345 103.160244 6.08932 156.582513l6.140491 20.212449 5.833466 17.858593 12.792689-14.020787c66.777836-72.764815 108.482003-142.766409 124.54962-210.055953z"
          fill="#FF8F0B" p-id="1984"></path>
</svg>